# xmcd
#
# Track frame offsets:
#	150
#	13988
#	27271
#	43616
#	59077
#	75541
#	89710
#	104962
#	119276
#	133339
#	148689
#	166986
#
# Disc length: 2382 seconds
# Revision: 2
# Processed by: cddbd v1.5.2PL0 Copyright (c) Steve Scherf et al.
# Submitted via: dBpowerAMP V12.0
#
DISCID=b5094c0c
DTITLE=Caleb Klauder - Dangerous Mes and Poisonous Yous
DYEAR=2007
DGENRE=Country
TTITLE0=Can I Go Home with You
TTITLE1=Hard Times
TTITLE2=Rockin' Years
TTITLE3=Sick, Sad and Lonesome
TTITLE4=Whose Shoulder Will You Cry On
TTITLE5=Innocent Road
TTITLE6=The Pain of Loving You
TTITLE7=New Shoes
TTITLE8=The Price You Pay
TTITLE9=Talk to Your Heart
TTITLE10=It's All Your Fault
TTITLE11=This Old Song
EXTD=
EXTT0=
EXTT1=
EXTT2=
EXTT3=
EXTT4=
EXTT5=
EXTT6=
EXTT7=
EXTT8=
EXTT9=
EXTT10=
EXTT11=
PLAYORDER=
